{"title":"White Collar S05E12 HDTV 480p x264 AAC [GWC].mp4","uid":9516993,"size":122803724,"categoryP":"video","categoryS":"tv_shows","magnet":"?xt=urn:btih:2eb71622dcc0d0adfb635bdd84a234d15488b043&amp;dn=White+Collar+S05E12+HDTV+480p+x264+AAC+%5BGWC%5D.mp4&amp;tr=udp%3A%2F%2Ftracker.openbittorrent.com%3A80&amp;tr=udp%3A%2F%2Fopen.demonii.com%3A1337&amp;tr=udp%3A%2F%2Ftracker.coppersurfer.tk%3A6969&amp;tr=udp%3A%2F%2Fexodus.desync.com%3A6969","seeders":1,"leechers":0,"uploader":"canc232","files":1,"time":1390543399,"description":"White Collar S05E12 HDTV 480p x264 AAC [GWC]\n\n\nSCREENS : &lt;a href=&quot;\nhttp://imageshack.com/a/img13/618/lsoa.jpg&quot; rel=&quot;nofollow&quot; target=&quot;_NEW&quot;&gt;\nhttp://imageshack.com/a/img13/618/lsoa.jpg&lt;/a&gt; &lt;a href=&quot;\nhttp://imageshack.com/a/img12/9190/1n0w.jpg&quot; rel=&quot;nofollow&quot; target=&quot;_NEW&quot;&gt;\nhttp://imageshack.com/a/img12/9190/1n0w.jpg&lt;/a&gt; &lt;a href=&quot;\nhttp://imageshack.com/a/img30/6240/evpq.jpg&quot; rel=&quot;nofollow&quot; target=&quot;_NEW&quot;&gt;\nhttp://imageshack.com/a/img30/6240/evpq.jpg&lt;/a&gt;\n\n\nMEDIA INFO :\nGeneral \nFormat : MPEG-4 \nFormat profile : Base Media \nFile size : 117 MiB \nDuration : 42mn 48s \nOverall bit rate mode : Variable \nOverall bit rate : 382 Kbps \n\nVideo \nFormat : AVC \nFormat profile : &lt;a class=&quot;__cf_email__&quot; href=&quot;/cdn-cgi/l/email-protection&quot; data-cfemail=&quot;0149686669414d322f31&quot;&gt;[email&amp;#160;protected]&lt;/a&gt;&lt;script cf-hash='f9e31' type=&quot;text/javascript&quot;&gt;\n/* &lt;![CDATA[ */!function(){try{var t=&quot;currentScript&quot;in document?document.currentScript:function(){for(var t=document.getElementsByTagName(&quot;script&quot;),e=t.length;e--;)if(t[e].getAttribute(&quot;cf-hash&quot;))return t[e]}();if(t&amp;&amp;t.previousSibling){var e,r,n,i,c=t.previousSibling,a=c.getAttribute(&quot;data-cfemail&quot;);if(a){for(e=&quot;&quot;,r=parseInt(a.substr(0,2),16),n=2;a.length-n;n+=2)i=parseInt(a.substr(n,2),16)^r,e+=String.fromCharCode(i);e=document.createTextNode(e),c.parentNode.replaceChild(e,c)}}}catch(u){}}();/* ]]&gt; */&lt;/script&gt; \nFormat settings, CABAC : Yes \nFormat settings, ReFrames : 4 frames \nDuration : 42mn 48s \nBit rate : 319 Kbps \nMaximum bit rate : 2 129 Kbps \nWidth : 720 pixels \nHeight : 404 pixels \nDisplay aspect ratio : 16:9 \nFrame rate : 23.976 fps \nStream size : 97.7 MiB (83%) \nTitle : White Collar S05E12 HDTV 480p x264 AAC [GWC] \nWriting library : x264 core \n\nAudio \nFormat : AAC \nFormat profile : HE-AAC / LC \nDuration : 42mn 48s \nBit rate mode : Variable \nChannel(s) : 2 channels \nSampling rate : 48.0 KHz / 24.0 KHz \nStream size : 18.4 MiB \nLanguage : English ","torrent":{"xt":"urn:btih:2eb71622dcc0d0adfb635bdd84a234d15488b043","amp;dn":"White+Collar+S05E12+HDTV+480p+x264+AAC+%5BGWC%5D.mp4","amp;tr":["udp%3A%2F%2Ftracker.openbittorrent.com%3A80","udp%3A%2F%2Fopen.demonii.com%3A1337","udp%3A%2F%2Ftracker.coppersurfer.tk%3A6969","udp%3A%2F%2Fexodus.desync.com%3A6969"],"infoHash":"2eb71622dcc0d0adfb635bdd84a234d15488b043","infoHashBuffer":{"type":"Buffer","data":[46,183,22,34,220,192,208,173,251,99,91,221,132,162,52,209,84,136,176,67]},"announce":[],"urlList":[]}}